<svg width="21" height="21" viewBox="0 0 21 21" fill="none" xmlns="http://www.w3.org/2000/svg">
<path d="M14.4868 11.3231L8.15792 17.652C8.09911 17.7108 8.02931 17.7575 7.95248 17.7893C7.87565 17.8211 7.7933 17.8375 7.71015 17.8375C7.62699 17.8375 7.54464 17.8211 7.46781 17.7893C7.39099 17.7575 7.32118 17.7108 7.26238 17.652C7.20357 17.5932 7.15693 17.5234 7.12511 17.4466C7.09328 17.3697 7.0769 17.2874 7.0769 17.2042C7.0769 17.1211 7.09328 17.0387 7.12511 16.9619C7.15693 16.8851 7.20357 16.8153 7.26238 16.7565L13.1443 10.8754L7.26238 4.99423C7.14362 4.87547 7.0769 4.71441 7.0769 4.54646C7.0769 4.37851 7.14362 4.21745 7.26238 4.09869C7.38113 3.97994 7.5422 3.91322 7.71015 3.91322C7.87809 3.91322 8.03916 3.97994 8.15792 4.09869L14.4868 10.4276C14.5457 10.4864 14.5923 10.5562 14.6242 10.633C14.656 10.7098 14.6724 10.7922 14.6724 10.8754C14.6724 10.9585 14.656 11.0409 14.6242 11.1177C14.5923 11.1945 14.5457 11.2643 14.4868 11.3231Z" fill="#191919"/>
</svg>
