<svg width="11" height="11" viewBox="0 0 11 11" fill="none" xmlns="http://www.w3.org/2000/svg">
<path d="M10.4694 5.11285V9.89817C10.4694 10.1178 10.3821 10.3285 10.2268 10.4838C10.0715 10.6391 9.86085 10.7263 9.6412 10.7263H7.57076C7.35111 10.7263 7.14046 10.6391 6.98515 10.4838C6.82984 10.3285 6.74258 10.1178 6.74258 9.89817V7.82772C6.74258 7.7179 6.69896 7.61257 6.6213 7.53492C6.54364 7.45726 6.43832 7.41363 6.32849 7.41363H4.67214C4.56232 7.41363 4.45699 7.45726 4.37933 7.53492C4.30168 7.61257 4.25805 7.7179 4.25805 7.82772V9.89817C4.25805 10.1178 4.1708 10.3285 4.01548 10.4838C3.86017 10.6391 3.64952 10.7263 3.42987 10.7263H1.35943C1.13978 10.7263 0.929131 10.6391 0.773818 10.4838C0.618504 10.3285 0.53125 10.1178 0.53125 9.89817V5.11285C0.531233 4.99823 0.555008 4.88485 0.601071 4.7799C0.647135 4.67494 0.714483 4.58069 0.798855 4.5031L4.93974 0.596175L4.94544 0.590481C5.0979 0.45183 5.29657 0.375 5.50265 0.375C5.70872 0.375 5.9074 0.45183 6.05985 0.590481C6.06162 0.592507 6.06352 0.594409 6.06555 0.596175L10.2064 4.5031C10.29 4.5811 10.3564 4.67553 10.4017 4.78047C10.4469 4.88541 10.47 4.99857 10.4694 5.11285Z" fill="white"/>
</svg>
