<svg width="16" height="16" viewBox="0 0 16 16" fill="none" xmlns="http://www.w3.org/2000/svg">
<path d="M4.5 2.49071V13.5057C4.50163 13.5936 4.52641 13.6795 4.57184 13.7548C4.61727 13.8301 4.68174 13.892 4.75875 13.9344C4.83576 13.9768 4.92259 13.9982 5.01048 13.9963C5.09837 13.9945 5.18422 13.9695 5.25938 13.9238L14.2644 8.41634C14.3363 8.3728 14.3958 8.31145 14.4371 8.2382C14.4784 8.16495 14.5 8.08229 14.5 7.99821C14.5 7.91413 14.4784 7.83148 14.4371 7.75823C14.3958 7.68498 14.3363 7.62363 14.2644 7.58009L5.25938 2.07259C5.18422 2.02697 5.09837 2.00197 5.01048 2.00011C4.92259 1.99825 4.83576 2.0196 4.75875 2.06201C4.68174 2.10441 4.61727 2.16637 4.57184 2.24164C4.52641 2.3169 4.50163 2.40282 4.5 2.49071Z" stroke="white" stroke-width="2" stroke-linecap="round" stroke-linejoin="round"/>
</svg>
