<svg width="66" height="40" viewBox="0 0 66 40" fill="none" xmlns="http://www.w3.org/2000/svg">
<path d="M19.6907 12.3407C19.6907 12.3407 24.1079 7.34049 26.2057 3.85264L17.9379 0C17.9379 0 15.9007 3.60921 12.3314 7.44103C8.80857 11.2226 4.67571 14.4232 2.66143 17.2891C2.64357 17.3143 2.62571 17.3394 2.60786 17.3645C2.59857 17.3775 2.58929 17.3904 2.58 17.4033C2.57643 17.4084 2.57429 17.4127 2.57071 17.4177C0.950714 19.7472 0 22.5809 0 25.6379C0 33.5701 6.39572 40 14.2857 40C22.1757 40 28.5714 33.5701 28.5714 25.6379C28.5714 19.6295 24.9007 14.4835 19.6907 12.3407Z" fill="white"/>
<path d="M56.262 12.3407C56.262 12.3407 60.6791 7.34049 62.777 3.85264L54.5091 0C54.5091 0 52.472 3.60921 48.9027 7.44103C45.3799 11.2226 41.247 14.4232 39.2327 17.2891C39.2149 17.3143 39.197 17.3394 39.1791 17.3645C39.1699 17.3775 39.1606 17.3904 39.1513 17.4033C39.1477 17.4084 39.1456 17.4127 39.142 17.4177C37.522 19.7472 36.5713 22.5809 36.5713 25.6379C36.5713 33.5701 42.967 40 50.857 40C58.747 40 65.1427 33.5701 65.1427 25.6379C65.1427 19.6295 61.472 14.4835 56.262 12.3407Z" fill="white"/>
</svg>
