<svg width="21" height="21" viewBox="0 0 21 21" fill="none" xmlns="http://www.w3.org/2000/svg">
<path d="M14.491 16.7565C14.5498 16.8153 14.5964 16.8851 14.6283 16.9619C14.6601 17.0387 14.6765 17.1211 14.6765 17.2042C14.6765 17.2874 14.6601 17.3697 14.6283 17.4466C14.5964 17.5234 14.5498 17.5932 14.491 17.652C14.4322 17.7108 14.3624 17.7575 14.2855 17.7893C14.2087 17.8211 14.1264 17.8375 14.0432 17.8375C13.9601 17.8375 13.8777 17.8211 13.8009 17.7893C13.7241 17.7575 13.6542 17.7108 13.5954 17.652L7.26655 11.3231C7.20771 11.2643 7.16103 11.1945 7.12918 11.1177C7.09733 11.0409 7.08093 10.9585 7.08093 10.8754C7.08093 10.7922 7.09733 10.7098 7.12918 10.633C7.16103 10.5562 7.20771 10.4864 7.26655 10.4276L13.5954 4.09869C13.7142 3.97994 13.8753 3.91322 14.0432 3.91322C14.2112 3.91322 14.3722 3.97994 14.491 4.09869C14.6097 4.21745 14.6765 4.37851 14.6765 4.54646C14.6765 4.71441 14.6097 4.87547 14.491 4.99423L8.60907 10.8754L14.491 16.7565Z" fill="#191919"/>
</svg>
