<svg fill="none" height="40" viewBox="0 0 69 40" width="69" xmlns="http://www.w3.org/2000/svg" class="lds-header-icon-arrows">
        <g fill="#79de00"><path d="m47.7188 1.21981c0-.669273.544-1.21440839 1.2121-1.21440839.334 0 .6411.13493439.8565.35622739l17.6375 17.671071c.501.5019.8134 1.1982.8134 1.97s-.3124 1.4627-.8134 1.97l-17.6375 17.6711c-.2208.2213-.5225.3562-.8565.3562-.6681 0-1.2121-.5451-1.2121-1.2144z"></path><path d="m23.8594 38.7802c0 .6693.5441 1.2144 1.2121 1.2144.334 0 .641-.1349.8564-.3562l17.6375-17.6711c.501-.5019.8134-1.1982.8134-1.97s-.3124-1.4627-.8134-1.97l-17.6375-17.671073c-.2208-.221292-.5224-.356227-.8564-.356227-.668 0-1.2121.545136-1.2121 1.21441v37.55499z"></path><path d="m0 38.7802c0 .6693.544099 1.2144 1.2121 1.2144.334 0 .64098-.1349.85647-.3562l17.63743-17.6711c.501-.5019.8134-1.1982.8134-1.97s-.3124-1.4627-.8134-1.97l-17.63743-17.671073c-.22087-.221292-.52247-.356227-.85647-.356227-.668001 0-1.2121.545136-1.2121 1.21441v37.55499z"></path></g>
      </svg>