<svg xmlns="http://www.w3.org/2000/svg" width="26" height="26" viewBox="0 0 26 26" fill="none">
<path d="M18.5 12.75C18.5 12.9489 18.421 13.1397 18.2803 13.2803C18.1397 13.421 17.9489 13.5 17.75 13.5H7.75001C7.55109 13.5 7.36033 13.421 7.21968 13.2803C7.07902 13.1397 7.00001 12.9489 7.00001 12.75C7.00001 12.5511 7.07902 12.3603 7.21968 12.2197C7.36033 12.079 7.55109 12 7.75001 12H17.75C17.9489 12 18.1397 12.079 18.2803 12.2197C18.421 12.3603 18.5 12.5511 18.5 12.75ZM25.5 12.75C25.5 15.2717 24.7522 17.7368 23.3512 19.8335C21.9503 21.9302 19.959 23.5644 17.6292 24.5295C15.2995 25.4945 12.7359 25.747 10.2626 25.255C7.78935 24.7631 5.51751 23.5487 3.73439 21.7656C1.95127 19.9825 0.736955 17.7107 0.244993 15.2374C-0.246968 12.7641 0.00552416 10.2005 0.970541 7.87079C1.93556 5.54103 3.56976 3.54975 5.66648 2.14876C7.76321 0.747774 10.2283 0 12.75 0C16.1303 0.00396981 19.371 1.34854 21.7612 3.73877C24.1515 6.129 25.496 9.36971 25.5 12.75ZM24 12.75C24 10.525 23.3402 8.34989 22.104 6.49984C20.8679 4.64978 19.1109 3.20784 17.0552 2.35636C14.9995 1.50487 12.7375 1.28208 10.5552 1.71617C8.37295 2.15025 6.3684 3.22171 4.79505 4.79505C3.22171 6.36839 2.15025 8.37295 1.71617 10.5552C1.28209 12.7375 1.50488 14.9995 2.35636 17.0552C3.20785 19.1109 4.64979 20.8679 6.49984 22.104C8.34989 23.3402 10.525 24 12.75 24C15.7327 23.9967 18.5922 22.8104 20.7013 20.7013C22.8104 18.5922 23.9967 15.7327 24 12.75Z" fill="#267E10"/>
</svg>