<svg width="26" height="26" viewBox="0 0 26 26" fill="none" xmlns="http://www.w3.org/2000/svg">
<path d="M18.75 13C18.75 13.1989 18.671 13.3897 18.5303 13.5303C18.3897 13.671 18.1989 13.75 18 13.75H8.00001C7.80109 13.75 7.61033 13.671 7.46968 13.5303C7.32902 13.3897 7.25001 13.1989 7.25001 13C7.25001 12.8011 7.32902 12.6103 7.46968 12.4697C7.61033 12.329 7.80109 12.25 8.00001 12.25H18C18.1989 12.25 18.3897 12.329 18.5303 12.4697C18.671 12.6103 18.75 12.8011 18.75 13ZM25.75 13C25.75 15.5217 25.0022 17.9868 23.6012 20.0835C22.2003 22.1802 20.209 23.8144 17.8792 24.7795C15.5495 25.7445 12.9859 25.997 10.5126 25.505C8.03935 25.0131 5.76751 23.7987 3.98439 22.0156C2.20127 20.2325 0.986955 17.9607 0.494993 15.4874C0.00303191 13.0141 0.255524 10.4505 1.22054 8.12079C2.18556 5.79103 3.81976 3.79975 5.91648 2.39876C8.01321 0.997774 10.4783 0.25 13 0.25C16.3803 0.25397 19.621 1.59854 22.0112 3.98877C24.4015 6.379 25.746 9.61971 25.75 13ZM24.25 13C24.25 10.775 23.5902 8.59989 22.354 6.74984C21.1179 4.89978 19.3609 3.45784 17.3052 2.60636C15.2495 1.75487 12.9875 1.53208 10.8052 1.96617C8.62295 2.40025 6.6184 3.47171 5.04505 5.04505C3.47171 6.61839 2.40025 8.62295 1.96617 10.8052C1.53209 12.9875 1.75488 15.2495 2.60636 17.3052C3.45785 19.3609 4.89979 21.1179 6.74984 22.354C8.59989 23.5902 10.775 24.25 13 24.25C15.9827 24.2467 18.8422 23.0604 20.9513 20.9513C23.0604 18.8422 24.2467 15.9827 24.25 13Z" fill="#3A3A3A"/>
</svg>
