<svg width="26" height="26" viewBox="0 0 26 26" fill="none" xmlns="http://www.w3.org/2000/svg">
<path d="M13 0.25C10.4783 0.25 8.01321 0.997774 5.91648 2.39876C3.81976 3.79975 2.18556 5.79103 1.22054 8.12079C0.255524 10.4505 0.00303191 13.0141 0.494993 15.4874C0.986955 17.9607 2.20127 20.2325 3.98439 22.0156C5.76751 23.7987 8.03935 25.0131 10.5126 25.505C12.9859 25.997 15.5495 25.7445 17.8792 24.7795C20.209 23.8144 22.2003 22.1802 23.6012 20.0835C25.0022 17.9868 25.75 15.5217 25.75 13C25.746 9.61971 24.4015 6.379 22.0112 3.98877C19.621 1.59854 16.3803 0.25397 13 0.25ZM13 24.25C10.775 24.25 8.59989 23.5902 6.74984 22.354C4.89979 21.1179 3.45785 19.3609 2.60636 17.3052C1.75488 15.2495 1.53209 12.9875 1.96617 10.8052C2.40025 8.62295 3.47171 6.61839 5.04505 5.04505C6.6184 3.47171 8.62295 2.40025 10.8052 1.96617C12.9875 1.53208 15.2495 1.75487 17.3052 2.60636C19.3609 3.45784 21.1179 4.89978 22.354 6.74984C23.5902 8.59989 24.25 10.775 24.25 13C24.2467 15.9827 23.0604 18.8422 20.9513 20.9513C18.8422 23.0604 15.9827 24.2467 13 24.25ZM18.75 13C18.75 13.1989 18.671 13.3897 18.5303 13.5303C18.3897 13.671 18.1989 13.75 18 13.75H13.75V18C13.75 18.1989 13.671 18.3897 13.5303 18.5303C13.3897 18.671 13.1989 18.75 13 18.75C12.8011 18.75 12.6103 18.671 12.4697 18.5303C12.329 18.3897 12.25 18.1989 12.25 18V13.75H8.00001C7.80109 13.75 7.61033 13.671 7.46968 13.5303C7.32902 13.3897 7.25001 13.1989 7.25001 13C7.25001 12.8011 7.32902 12.6103 7.46968 12.4697C7.61033 12.329 7.80109 12.25 8.00001 12.25H12.25V8C12.25 7.80109 12.329 7.61032 12.4697 7.46967C12.6103 7.32902 12.8011 7.25 13 7.25C13.1989 7.25 13.3897 7.32902 13.5303 7.46967C13.671 7.61032 13.75 7.80109 13.75 8V12.25H18C18.1989 12.25 18.3897 12.329 18.5303 12.4697C18.671 12.6103 18.75 12.8011 18.75 13Z" fill="#3A3A3A"/>
</svg>
